<mxfile host="app.diagrams.net" agent="Mozilla/5.0 (Windows NT 10.0; Win64; x64) AppleWebKit/537.36 (KHTML, like Gecko) Chrome/130.0.0.0 Safari/537.36" version="26.1.0">
  <diagram name="Page-1" id="c4acf3e9-155e-7222-9cf6-157b1a14988f">
    <mxGraphModel dx="3187" dy="1716" grid="1" gridSize="10" guides="1" tooltips="1" connect="1" arrows="1" fold="1" page="1" pageScale="1" pageWidth="850" pageHeight="1100" background="none" math="0" shadow="0">
      <root>
        <mxCell id="0" />
        <mxCell id="1" parent="0" />
        <mxCell id="5d2195bd80daf111-1" value="PersonalComputerBuilder" style="swimlane;html=1;fontStyle=0;childLayout=stackLayout;horizontal=1;startSize=26;fillColor=none;horizontalStack=0;resizeParent=1;resizeLast=0;collapsible=1;marginBottom=0;swimlaneFillColor=#ffffff;rounded=0;shadow=0;comic=0;labelBackgroundColor=none;strokeWidth=1;fontFamily=Verdana;fontSize=10;align=center;" parent="1" vertex="1">
          <mxGeometry x="120" y="310" width="320" height="164" as="geometry" />
        </mxCell>
        <mxCell id="5d2195bd80daf111-2" value="+ personalComputer: PersonalComputer" style="text;html=1;strokeColor=none;fillColor=none;align=left;verticalAlign=top;spacingLeft=4;spacingRight=4;whiteSpace=wrap;overflow=hidden;rotatable=0;points=[[0,0.5],[1,0.5]];portConstraint=eastwest;" parent="5d2195bd80daf111-1" vertex="1">
          <mxGeometry y="26" width="320" height="26" as="geometry" />
        </mxCell>
        <mxCell id="CWqKhx1uBj2cu5T1y3e2-7" value="" style="line;strokeWidth=1;fillColor=none;align=left;verticalAlign=middle;spacingTop=-1;spacingLeft=3;spacingRight=3;rotatable=0;labelPosition=right;points=[];portConstraint=eastwest;strokeColor=inherit;" parent="5d2195bd80daf111-1" vertex="1">
          <mxGeometry y="52" width="320" height="8" as="geometry" />
        </mxCell>
        <mxCell id="CWqKhx1uBj2cu5T1y3e2-16" value="+ setCPU(): PersonalComputerBuilder" style="text;strokeColor=none;fillColor=none;align=left;verticalAlign=top;spacingLeft=4;spacingRight=4;overflow=hidden;rotatable=0;points=[[0,0.5],[1,0.5]];portConstraint=eastwest;whiteSpace=wrap;html=1;" parent="5d2195bd80daf111-1" vertex="1">
          <mxGeometry y="60" width="320" height="26" as="geometry" />
        </mxCell>
        <mxCell id="CWqKhx1uBj2cu5T1y3e2-17" value="+ setRAM(): PersonalComputerBuilder" style="text;strokeColor=none;fillColor=none;align=left;verticalAlign=top;spacingLeft=4;spacingRight=4;overflow=hidden;rotatable=0;points=[[0,0.5],[1,0.5]];portConstraint=eastwest;whiteSpace=wrap;html=1;" parent="5d2195bd80daf111-1" vertex="1">
          <mxGeometry y="86" width="320" height="26" as="geometry" />
        </mxCell>
        <mxCell id="CWqKhx1uBj2cu5T1y3e2-24" value="+ setStorage(): PersonalComputerBuilder" style="text;strokeColor=none;fillColor=none;align=left;verticalAlign=top;spacingLeft=4;spacingRight=4;overflow=hidden;rotatable=0;points=[[0,0.5],[1,0.5]];portConstraint=eastwest;whiteSpace=wrap;html=1;" parent="5d2195bd80daf111-1" vertex="1">
          <mxGeometry y="112" width="320" height="26" as="geometry" />
        </mxCell>
        <mxCell id="CWqKhx1uBj2cu5T1y3e2-23" value="+ setHasWifi(): PersonalComputerBuilder" style="text;strokeColor=none;fillColor=none;align=left;verticalAlign=top;spacingLeft=4;spacingRight=4;overflow=hidden;rotatable=0;points=[[0,0.5],[1,0.5]];portConstraint=eastwest;whiteSpace=wrap;html=1;" parent="5d2195bd80daf111-1" vertex="1">
          <mxGeometry y="138" width="320" height="26" as="geometry" />
        </mxCell>
        <mxCell id="CWqKhx1uBj2cu5T1y3e2-29" value="" style="group" parent="1" vertex="1" connectable="0">
          <mxGeometry x="310" y="100" width="230" height="141" as="geometry" />
        </mxCell>
        <mxCell id="5d2195bd80daf111-9" value="&lt;p style=&quot;margin:0px;margin-top:4px;text-align:center;&quot;&gt;&lt;i&gt;&amp;lt;&amp;lt;Interface&amp;gt;&amp;gt;&lt;/i&gt;&lt;br&gt;&lt;b&gt;IComputerBuilder&lt;/b&gt;&lt;/p&gt;&lt;hr size=&quot;1&quot;&gt;&lt;p style=&quot;margin:0px;margin-left:4px;&quot;&gt;&lt;br&gt;&lt;/p&gt;" style="verticalAlign=top;align=left;overflow=fill;fontSize=12;fontFamily=Helvetica;html=1;rounded=0;shadow=0;comic=0;labelBackgroundColor=none;strokeWidth=1" parent="CWqKhx1uBj2cu5T1y3e2-29" vertex="1">
          <mxGeometry width="230" height="140" as="geometry" />
        </mxCell>
        <mxCell id="CWqKhx1uBj2cu5T1y3e2-34" value="+ setCPU(): IComputerBuilder" style="text;strokeColor=none;fillColor=none;align=left;verticalAlign=top;spacingLeft=4;spacingRight=4;overflow=hidden;rotatable=0;points=[[0,0.5],[1,0.5]];portConstraint=eastwest;whiteSpace=wrap;html=1;" parent="CWqKhx1uBj2cu5T1y3e2-29" vertex="1">
          <mxGeometry x="23.589743589743588" y="37" width="188.7179487179487" height="26" as="geometry" />
        </mxCell>
        <mxCell id="CWqKhx1uBj2cu5T1y3e2-35" value="+ setRAM(): IComputerBuilder" style="text;strokeColor=none;fillColor=none;align=left;verticalAlign=top;spacingLeft=4;spacingRight=4;overflow=hidden;rotatable=0;points=[[0,0.5],[1,0.5]];portConstraint=eastwest;whiteSpace=wrap;html=1;" parent="CWqKhx1uBj2cu5T1y3e2-29" vertex="1">
          <mxGeometry x="23.589743589743588" y="63" width="188.7179487179487" height="26" as="geometry" />
        </mxCell>
        <mxCell id="CWqKhx1uBj2cu5T1y3e2-36" value="+ setStorage(): IComputerBuilder" style="text;strokeColor=none;fillColor=none;align=left;verticalAlign=top;spacingLeft=4;spacingRight=4;overflow=hidden;rotatable=0;points=[[0,0.5],[1,0.5]];portConstraint=eastwest;whiteSpace=wrap;html=1;" parent="CWqKhx1uBj2cu5T1y3e2-29" vertex="1">
          <mxGeometry x="23.589743589743588" y="89" width="188.7179487179487" height="26" as="geometry" />
        </mxCell>
        <mxCell id="CWqKhx1uBj2cu5T1y3e2-37" value="+ setHasWifi(): IComputerBuilder" style="text;strokeColor=none;fillColor=none;align=left;verticalAlign=top;spacingLeft=4;spacingRight=4;overflow=hidden;rotatable=0;points=[[0,0.5],[1,0.5]];portConstraint=eastwest;whiteSpace=wrap;html=1;" parent="CWqKhx1uBj2cu5T1y3e2-29" vertex="1">
          <mxGeometry x="23.589743589743588" y="115" width="188.7179487179487" height="26" as="geometry" />
        </mxCell>
        <mxCell id="CWqKhx1uBj2cu5T1y3e2-39" value="ServerComputerBuilder" style="swimlane;html=1;fontStyle=0;childLayout=stackLayout;horizontal=1;startSize=26;fillColor=none;horizontalStack=0;resizeParent=1;resizeLast=0;collapsible=1;marginBottom=0;swimlaneFillColor=#ffffff;rounded=0;shadow=0;comic=0;labelBackgroundColor=none;strokeWidth=1;fontFamily=Verdana;fontSize=10;align=center;" parent="1" vertex="1">
          <mxGeometry x="520" y="310" width="240" height="164" as="geometry" />
        </mxCell>
        <mxCell id="CWqKhx1uBj2cu5T1y3e2-40" value="+ serverComputer: ServerComputer" style="text;html=1;strokeColor=none;fillColor=none;align=left;verticalAlign=top;spacingLeft=4;spacingRight=4;whiteSpace=wrap;overflow=hidden;rotatable=0;points=[[0,0.5],[1,0.5]];portConstraint=eastwest;" parent="CWqKhx1uBj2cu5T1y3e2-39" vertex="1">
          <mxGeometry y="26" width="240" height="26" as="geometry" />
        </mxCell>
        <mxCell id="CWqKhx1uBj2cu5T1y3e2-41" value="" style="line;strokeWidth=1;fillColor=none;align=left;verticalAlign=middle;spacingTop=-1;spacingLeft=3;spacingRight=3;rotatable=0;labelPosition=right;points=[];portConstraint=eastwest;strokeColor=inherit;" parent="CWqKhx1uBj2cu5T1y3e2-39" vertex="1">
          <mxGeometry y="52" width="240" height="8" as="geometry" />
        </mxCell>
        <mxCell id="CWqKhx1uBj2cu5T1y3e2-42" value="+ setCPU(): ServerComputerBuilder" style="text;strokeColor=none;fillColor=none;align=left;verticalAlign=top;spacingLeft=4;spacingRight=4;overflow=hidden;rotatable=0;points=[[0,0.5],[1,0.5]];portConstraint=eastwest;whiteSpace=wrap;html=1;" parent="CWqKhx1uBj2cu5T1y3e2-39" vertex="1">
          <mxGeometry y="60" width="240" height="26" as="geometry" />
        </mxCell>
        <mxCell id="CWqKhx1uBj2cu5T1y3e2-43" value="+ setRAM(): ServerComputerBuilder" style="text;strokeColor=none;fillColor=none;align=left;verticalAlign=top;spacingLeft=4;spacingRight=4;overflow=hidden;rotatable=0;points=[[0,0.5],[1,0.5]];portConstraint=eastwest;whiteSpace=wrap;html=1;" parent="CWqKhx1uBj2cu5T1y3e2-39" vertex="1">
          <mxGeometry y="86" width="240" height="26" as="geometry" />
        </mxCell>
        <mxCell id="CWqKhx1uBj2cu5T1y3e2-44" value="+ setStorage(): ServerComputerBuilder" style="text;strokeColor=none;fillColor=none;align=left;verticalAlign=top;spacingLeft=4;spacingRight=4;overflow=hidden;rotatable=0;points=[[0,0.5],[1,0.5]];portConstraint=eastwest;whiteSpace=wrap;html=1;" parent="CWqKhx1uBj2cu5T1y3e2-39" vertex="1">
          <mxGeometry y="112" width="240" height="26" as="geometry" />
        </mxCell>
        <mxCell id="CWqKhx1uBj2cu5T1y3e2-45" value="+ setHasWifi(): ServerComputerBuilder" style="text;strokeColor=none;fillColor=none;align=left;verticalAlign=top;spacingLeft=4;spacingRight=4;overflow=hidden;rotatable=0;points=[[0,0.5],[1,0.5]];portConstraint=eastwest;whiteSpace=wrap;html=1;" parent="CWqKhx1uBj2cu5T1y3e2-39" vertex="1">
          <mxGeometry y="138" width="240" height="26" as="geometry" />
        </mxCell>
        <mxCell id="CWqKhx1uBj2cu5T1y3e2-48" value="" style="endArrow=block;dashed=1;endFill=0;endSize=12;html=1;rounded=0;entryX=0.49;entryY=1.015;entryDx=0;entryDy=0;entryPerimeter=0;exitX=0.5;exitY=0;exitDx=0;exitDy=0;edgeStyle=elbowEdgeStyle;elbow=vertical;" parent="1" source="5d2195bd80daf111-1" target="CWqKhx1uBj2cu5T1y3e2-37" edge="1">
          <mxGeometry width="160" relative="1" as="geometry">
            <mxPoint x="340" y="280" as="sourcePoint" />
            <mxPoint x="500" y="280" as="targetPoint" />
          </mxGeometry>
        </mxCell>
        <mxCell id="CWqKhx1uBj2cu5T1y3e2-50" value="" style="endArrow=block;dashed=1;endFill=0;endSize=12;html=1;rounded=0;exitX=0.5;exitY=0;exitDx=0;exitDy=0;edgeStyle=elbowEdgeStyle;elbow=vertical;entryX=0.495;entryY=1;entryDx=0;entryDy=0;entryPerimeter=0;" parent="1" source="CWqKhx1uBj2cu5T1y3e2-39" edge="1">
          <mxGeometry width="160" relative="1" as="geometry">
            <mxPoint x="669" y="310" as="sourcePoint" />
            <mxPoint x="426.00512820512836" y="241" as="targetPoint" />
          </mxGeometry>
        </mxCell>
        <mxCell id="CWqKhx1uBj2cu5T1y3e2-51" value="PersonalComputer" style="html=1;whiteSpace=wrap;" parent="1" vertex="1">
          <mxGeometry x="194" y="510" width="110" height="50" as="geometry" />
        </mxCell>
        <mxCell id="CWqKhx1uBj2cu5T1y3e2-52" value="ServerComputer" style="html=1;whiteSpace=wrap;" parent="1" vertex="1">
          <mxGeometry x="590" y="510" width="110" height="50" as="geometry" />
        </mxCell>
        <mxCell id="CWqKhx1uBj2cu5T1y3e2-53" value="" style="endArrow=open;endFill=1;endSize=12;html=1;rounded=0;exitX=0.406;exitY=0.962;exitDx=0;exitDy=0;exitPerimeter=0;" parent="1" source="CWqKhx1uBj2cu5T1y3e2-23" edge="1">
          <mxGeometry width="160" relative="1" as="geometry">
            <mxPoint x="249" y="480" as="sourcePoint" />
            <mxPoint x="248.98412748801638" y="511" as="targetPoint" />
          </mxGeometry>
        </mxCell>
        <mxCell id="CWqKhx1uBj2cu5T1y3e2-54" value="" style="endArrow=open;endFill=1;endSize=12;html=1;rounded=0;exitX=0.406;exitY=0.962;exitDx=0;exitDy=0;exitPerimeter=0;" parent="1" edge="1">
          <mxGeometry width="160" relative="1" as="geometry">
            <mxPoint x="645.51" y="474" as="sourcePoint" />
            <mxPoint x="644.4941274880164" y="512" as="targetPoint" />
          </mxGeometry>
        </mxCell>
        <mxCell id="Bqn8cKHnCFtLTv_tAmw6-1" value="System" style="shape=umlFrame;whiteSpace=wrap;html=1;pointerEvents=0;" vertex="1" parent="1">
          <mxGeometry x="90" y="90" width="700" height="500" as="geometry" />
        </mxCell>
      </root>
    </mxGraphModel>
  </diagram>
</mxfile>
